<mxfile host="Electron" modified="2024-11-01T04:31:17.477Z" agent="Mozilla/5.0 (Windows NT 10.0; Win64; x64) AppleWebKit/537.36 (KHTML, like Gecko) draw.io/23.1.5 Chrome/120.0.6099.109 Electron/28.1.0 Safari/537.36" etag="zDt4Ntqg4p6X_DB0dJUI" version="23.1.5" type="device">
  <diagram id="C5RBs43oDa-KdzZeNtuy" name="Page-1">
    <mxGraphModel dx="3067" dy="1064" grid="1" gridSize="10" guides="1" tooltips="1" connect="1" arrows="1" fold="1" page="1" pageScale="1" pageWidth="827" pageHeight="1169" math="0" shadow="0">
      <root>
        <mxCell id="WIyWlLk6GJQsqaUBKTNV-0" />
        <mxCell id="WIyWlLk6GJQsqaUBKTNV-1" parent="WIyWlLk6GJQsqaUBKTNV-0" />
        <mxCell id="zkfFHV4jXpPFQw0GAbJ--0" value="Juego" style="swimlane;fontStyle=2;align=center;verticalAlign=top;childLayout=stackLayout;horizontal=1;startSize=26;horizontalStack=0;resizeParent=1;resizeLast=0;collapsible=1;marginBottom=0;rounded=0;shadow=0;strokeWidth=1;" parent="WIyWlLk6GJQsqaUBKTNV-1" vertex="1">
          <mxGeometry x="190" y="80" width="190" height="182" as="geometry">
            <mxRectangle x="230" y="140" width="160" height="26" as="alternateBounds" />
          </mxGeometry>
        </mxCell>
        <mxCell id="zkfFHV4jXpPFQw0GAbJ--1" value="- niveles (Nivel[])&#xa;- historia (Historia)&#xa;- configuración (Configuración)&#xa;- estadoJuego (EstadoJuego)" style="text;align=left;verticalAlign=top;spacingLeft=4;spacingRight=4;overflow=hidden;rotatable=0;points=[[0,0.5],[1,0.5]];portConstraint=eastwest;" parent="zkfFHV4jXpPFQw0GAbJ--0" vertex="1">
          <mxGeometry y="26" width="190" height="64" as="geometry" />
        </mxCell>
        <mxCell id="zkfFHV4jXpPFQw0GAbJ--4" value="" style="line;html=1;strokeWidth=1;align=left;verticalAlign=middle;spacingTop=-1;spacingLeft=3;spacingRight=3;rotatable=0;labelPosition=right;points=[];portConstraint=eastwest;" parent="zkfFHV4jXpPFQw0GAbJ--0" vertex="1">
          <mxGeometry y="90" width="190" height="8" as="geometry" />
        </mxCell>
        <mxCell id="zkfFHV4jXpPFQw0GAbJ--5" value="iniciarJuego()&#xa;actualizarJuego()&#xa;terminarJuego()&#xa;cargarNivel(Nivel)" style="text;align=left;verticalAlign=top;spacingLeft=4;spacingRight=4;overflow=hidden;rotatable=0;points=[[0,0.5],[1,0.5]];portConstraint=eastwest;" parent="zkfFHV4jXpPFQw0GAbJ--0" vertex="1">
          <mxGeometry y="98" width="190" height="84" as="geometry" />
        </mxCell>
        <mxCell id="FvRMjD2MWKe5-9YGTqvw-2" value="Actor" style="swimlane;fontStyle=0;align=center;verticalAlign=top;childLayout=stackLayout;horizontal=1;startSize=26;horizontalStack=0;resizeParent=1;resizeLast=0;collapsible=1;marginBottom=0;rounded=0;shadow=0;strokeWidth=1;" vertex="1" parent="WIyWlLk6GJQsqaUBKTNV-1">
          <mxGeometry x="480" y="120" width="160" height="158" as="geometry">
            <mxRectangle x="340" y="380" width="170" height="26" as="alternateBounds" />
          </mxGeometry>
        </mxCell>
        <mxCell id="FvRMjD2MWKe5-9YGTqvw-3" value="salud(Salud)&#xa;energía (Energía)&#xa;posición (int[])" style="text;align=left;verticalAlign=top;spacingLeft=4;spacingRight=4;overflow=hidden;rotatable=0;points=[[0,0.5],[1,0.5]];portConstraint=eastwest;" vertex="1" parent="FvRMjD2MWKe5-9YGTqvw-2">
          <mxGeometry y="26" width="160" height="54" as="geometry" />
        </mxCell>
        <mxCell id="FvRMjD2MWKe5-9YGTqvw-4" value="" style="line;html=1;strokeWidth=1;align=left;verticalAlign=middle;spacingTop=-1;spacingLeft=3;spacingRight=3;rotatable=0;labelPosition=right;points=[];portConstraint=eastwest;" vertex="1" parent="FvRMjD2MWKe5-9YGTqvw-2">
          <mxGeometry y="80" width="160" height="8" as="geometry" />
        </mxCell>
        <mxCell id="FvRMjD2MWKe5-9YGTqvw-5" value="&amp;nbsp;moverse()&lt;br&gt;&amp;nbsp;atacar()&lt;br&gt;&amp;nbsp;recibirDaño()&lt;br&gt;&amp;nbsp;morir()" style="text;html=1;align=left;verticalAlign=middle;resizable=0;points=[];autosize=1;strokeColor=none;fillColor=none;rotation=0;" vertex="1" parent="FvRMjD2MWKe5-9YGTqvw-2">
          <mxGeometry y="88" width="160" height="70" as="geometry" />
        </mxCell>
        <mxCell id="FvRMjD2MWKe5-9YGTqvw-6" value="Jugador" style="swimlane;fontStyle=0;align=center;verticalAlign=top;childLayout=stackLayout;horizontal=1;startSize=26;horizontalStack=0;resizeParent=1;resizeLast=0;collapsible=1;marginBottom=0;rounded=0;shadow=0;strokeWidth=1;" vertex="1" parent="WIyWlLk6GJQsqaUBKTNV-1">
          <mxGeometry x="570" y="320" width="160" height="128" as="geometry">
            <mxRectangle x="340" y="380" width="170" height="26" as="alternateBounds" />
          </mxGeometry>
        </mxCell>
        <mxCell id="FvRMjD2MWKe5-9YGTqvw-7" value="inventario(Item[])" style="text;align=left;verticalAlign=top;spacingLeft=4;spacingRight=4;overflow=hidden;rotatable=0;points=[[0,0.5],[1,0.5]];portConstraint=eastwest;" vertex="1" parent="FvRMjD2MWKe5-9YGTqvw-6">
          <mxGeometry y="26" width="160" height="44" as="geometry" />
        </mxCell>
        <mxCell id="FvRMjD2MWKe5-9YGTqvw-8" value="" style="line;html=1;strokeWidth=1;align=left;verticalAlign=middle;spacingTop=-1;spacingLeft=3;spacingRight=3;rotatable=0;labelPosition=right;points=[];portConstraint=eastwest;" vertex="1" parent="FvRMjD2MWKe5-9YGTqvw-6">
          <mxGeometry y="70" width="160" height="8" as="geometry" />
        </mxCell>
        <mxCell id="FvRMjD2MWKe5-9YGTqvw-9" value="usarItem(),&lt;br/&gt;equiparItem()" style="text;html=1;align=left;verticalAlign=middle;resizable=0;points=[];autosize=1;strokeColor=none;fillColor=none;rotation=0;" vertex="1" parent="FvRMjD2MWKe5-9YGTqvw-6">
          <mxGeometry y="78" width="160" height="40" as="geometry" />
        </mxCell>
        <mxCell id="FvRMjD2MWKe5-9YGTqvw-11" value="Villano" style="swimlane;fontStyle=0;align=center;verticalAlign=top;childLayout=stackLayout;horizontal=1;startSize=26;horizontalStack=0;resizeParent=1;resizeLast=0;collapsible=1;marginBottom=0;rounded=0;shadow=0;strokeWidth=1;" vertex="1" parent="WIyWlLk6GJQsqaUBKTNV-1">
          <mxGeometry x="380" y="320" width="160" height="128" as="geometry">
            <mxRectangle x="340" y="380" width="170" height="26" as="alternateBounds" />
          </mxGeometry>
        </mxCell>
        <mxCell id="FvRMjD2MWKe5-9YGTqvw-12" value="patrónDeMovimiento&#xa;(PatrónDeMovimiento)" style="text;align=left;verticalAlign=top;spacingLeft=4;spacingRight=4;overflow=hidden;rotatable=0;points=[[0,0.5],[1,0.5]];portConstraint=eastwest;" vertex="1" parent="FvRMjD2MWKe5-9YGTqvw-11">
          <mxGeometry y="26" width="160" height="44" as="geometry" />
        </mxCell>
        <mxCell id="FvRMjD2MWKe5-9YGTqvw-13" value="" style="line;html=1;strokeWidth=1;align=left;verticalAlign=middle;spacingTop=-1;spacingLeft=3;spacingRight=3;rotatable=0;labelPosition=right;points=[];portConstraint=eastwest;" vertex="1" parent="FvRMjD2MWKe5-9YGTqvw-11">
          <mxGeometry y="70" width="160" height="8" as="geometry" />
        </mxCell>
        <mxCell id="FvRMjD2MWKe5-9YGTqvw-14" value="atacarJugador(),&lt;br&gt;soltarObjeto()" style="text;html=1;align=left;verticalAlign=middle;resizable=0;points=[];autosize=1;strokeColor=none;fillColor=none;rotation=0;" vertex="1" parent="FvRMjD2MWKe5-9YGTqvw-11">
          <mxGeometry y="78" width="160" height="40" as="geometry" />
        </mxCell>
        <mxCell id="FvRMjD2MWKe5-9YGTqvw-15" value="" style="endArrow=none;html=1;edgeStyle=orthogonalEdgeStyle;rounded=0;entryX=0.5;entryY=0;entryDx=0;entryDy=0;" edge="1" parent="WIyWlLk6GJQsqaUBKTNV-1" target="FvRMjD2MWKe5-9YGTqvw-11">
          <mxGeometry relative="1" as="geometry">
            <mxPoint x="640" y="198.5" as="sourcePoint" />
            <mxPoint x="460" y="250" as="targetPoint" />
            <Array as="points">
              <mxPoint x="670" y="199" />
              <mxPoint x="670" y="300" />
              <mxPoint x="460" y="300" />
            </Array>
          </mxGeometry>
        </mxCell>
        <mxCell id="FvRMjD2MWKe5-9YGTqvw-16" value="parent" style="edgeLabel;resizable=0;html=1;align=left;verticalAlign=bottom;" connectable="0" vertex="1" parent="FvRMjD2MWKe5-9YGTqvw-15">
          <mxGeometry x="-1" relative="1" as="geometry" />
        </mxCell>
        <mxCell id="FvRMjD2MWKe5-9YGTqvw-17" value="child" style="edgeLabel;resizable=0;html=1;align=right;verticalAlign=bottom;" connectable="0" vertex="1" parent="FvRMjD2MWKe5-9YGTqvw-15">
          <mxGeometry x="1" relative="1" as="geometry" />
        </mxCell>
        <mxCell id="FvRMjD2MWKe5-9YGTqvw-18" value="" style="endArrow=none;html=1;edgeStyle=orthogonalEdgeStyle;rounded=0;entryX=0.863;entryY=-0.031;entryDx=0;entryDy=0;entryPerimeter=0;" edge="1" parent="WIyWlLk6GJQsqaUBKTNV-1" target="FvRMjD2MWKe5-9YGTqvw-6">
          <mxGeometry relative="1" as="geometry">
            <mxPoint x="640" y="170" as="sourcePoint" />
            <mxPoint x="710" y="270" as="targetPoint" />
            <Array as="points">
              <mxPoint x="710" y="170" />
              <mxPoint x="710" y="320" />
              <mxPoint x="708" y="320" />
            </Array>
          </mxGeometry>
        </mxCell>
        <mxCell id="FvRMjD2MWKe5-9YGTqvw-19" value="parent" style="edgeLabel;resizable=0;html=1;align=left;verticalAlign=bottom;" connectable="0" vertex="1" parent="FvRMjD2MWKe5-9YGTqvw-18">
          <mxGeometry x="-1" relative="1" as="geometry" />
        </mxCell>
        <mxCell id="FvRMjD2MWKe5-9YGTqvw-20" value="child" style="edgeLabel;resizable=0;html=1;align=right;verticalAlign=bottom;" connectable="0" vertex="1" parent="FvRMjD2MWKe5-9YGTqvw-18">
          <mxGeometry x="1" relative="1" as="geometry" />
        </mxCell>
        <mxCell id="FvRMjD2MWKe5-9YGTqvw-21" value="" style="endArrow=diamondThin;endFill=1;endSize=24;html=1;rounded=0;entryX=1;entryY=0.375;entryDx=0;entryDy=0;entryPerimeter=0;" edge="1" parent="WIyWlLk6GJQsqaUBKTNV-1" source="FvRMjD2MWKe5-9YGTqvw-3" target="zkfFHV4jXpPFQw0GAbJ--4">
          <mxGeometry width="160" relative="1" as="geometry">
            <mxPoint x="330" y="280" as="sourcePoint" />
            <mxPoint x="490" y="280" as="targetPoint" />
            <Array as="points" />
          </mxGeometry>
        </mxCell>
        <mxCell id="FvRMjD2MWKe5-9YGTqvw-22" value="Objeto" style="swimlane;fontStyle=0;align=center;verticalAlign=top;childLayout=stackLayout;horizontal=1;startSize=26;horizontalStack=0;resizeParent=1;resizeLast=0;collapsible=1;marginBottom=0;rounded=0;shadow=0;strokeWidth=1;" vertex="1" parent="WIyWlLk6GJQsqaUBKTNV-1">
          <mxGeometry x="-40" y="100" width="160" height="128" as="geometry">
            <mxRectangle x="340" y="380" width="170" height="26" as="alternateBounds" />
          </mxGeometry>
        </mxCell>
        <mxCell id="FvRMjD2MWKe5-9YGTqvw-23" value="id (int)" style="text;align=left;verticalAlign=top;spacingLeft=4;spacingRight=4;overflow=hidden;rotatable=0;points=[[0,0.5],[1,0.5]];portConstraint=eastwest;" vertex="1" parent="FvRMjD2MWKe5-9YGTqvw-22">
          <mxGeometry y="26" width="160" height="44" as="geometry" />
        </mxCell>
        <mxCell id="FvRMjD2MWKe5-9YGTqvw-24" value="" style="line;html=1;strokeWidth=1;align=left;verticalAlign=middle;spacingTop=-1;spacingLeft=3;spacingRight=3;rotatable=0;labelPosition=right;points=[];portConstraint=eastwest;" vertex="1" parent="FvRMjD2MWKe5-9YGTqvw-22">
          <mxGeometry y="70" width="160" height="8" as="geometry" />
        </mxCell>
        <mxCell id="FvRMjD2MWKe5-9YGTqvw-25" value="inicializar(),&lt;br/&gt;destruir()" style="text;html=1;align=left;verticalAlign=middle;resizable=0;points=[];autosize=1;strokeColor=none;fillColor=none;rotation=0;" vertex="1" parent="FvRMjD2MWKe5-9YGTqvw-22">
          <mxGeometry y="78" width="160" height="40" as="geometry" />
        </mxCell>
        <mxCell id="FvRMjD2MWKe5-9YGTqvw-26" value="Entidad" style="swimlane;fontStyle=0;align=center;verticalAlign=top;childLayout=stackLayout;horizontal=1;startSize=26;horizontalStack=0;resizeParent=1;resizeLast=0;collapsible=1;marginBottom=0;rounded=0;shadow=0;strokeWidth=1;" vertex="1" parent="WIyWlLk6GJQsqaUBKTNV-1">
          <mxGeometry x="-320" y="100" width="160" height="128" as="geometry">
            <mxRectangle x="340" y="380" width="170" height="26" as="alternateBounds" />
          </mxGeometry>
        </mxCell>
        <mxCell id="FvRMjD2MWKe5-9YGTqvw-27" value="posición (int[])&#xa;tamaño (int)" style="text;align=left;verticalAlign=top;spacingLeft=4;spacingRight=4;overflow=hidden;rotatable=0;points=[[0,0.5],[1,0.5]];portConstraint=eastwest;" vertex="1" parent="FvRMjD2MWKe5-9YGTqvw-26">
          <mxGeometry y="26" width="160" height="44" as="geometry" />
        </mxCell>
        <mxCell id="FvRMjD2MWKe5-9YGTqvw-28" value="" style="line;html=1;strokeWidth=1;align=left;verticalAlign=middle;spacingTop=-1;spacingLeft=3;spacingRight=3;rotatable=0;labelPosition=right;points=[];portConstraint=eastwest;" vertex="1" parent="FvRMjD2MWKe5-9YGTqvw-26">
          <mxGeometry y="70" width="160" height="8" as="geometry" />
        </mxCell>
        <mxCell id="FvRMjD2MWKe5-9YGTqvw-29" value="actualizar()&lt;br&gt;dibujar()" style="text;html=1;align=left;verticalAlign=middle;resizable=0;points=[];autosize=1;strokeColor=none;fillColor=none;rotation=0;" vertex="1" parent="FvRMjD2MWKe5-9YGTqvw-26">
          <mxGeometry y="78" width="160" height="40" as="geometry" />
        </mxCell>
        <mxCell id="FvRMjD2MWKe5-9YGTqvw-30" value="" style="endArrow=none;html=1;edgeStyle=orthogonalEdgeStyle;rounded=0;exitX=-0.019;exitY=-0.075;exitDx=0;exitDy=0;exitPerimeter=0;entryX=1;entryY=0.5;entryDx=0;entryDy=0;entryPerimeter=0;" edge="1" parent="WIyWlLk6GJQsqaUBKTNV-1" source="FvRMjD2MWKe5-9YGTqvw-25" target="FvRMjD2MWKe5-9YGTqvw-28">
          <mxGeometry relative="1" as="geometry">
            <mxPoint x="-80" y="176" as="sourcePoint" />
            <mxPoint x="-170" y="175.51" as="targetPoint" />
            <Array as="points">
              <mxPoint x="-43" y="176" />
              <mxPoint x="-56" y="176" />
              <mxPoint x="-56" y="174" />
            </Array>
          </mxGeometry>
        </mxCell>
        <mxCell id="FvRMjD2MWKe5-9YGTqvw-31" value="parent" style="edgeLabel;resizable=0;html=1;align=left;verticalAlign=bottom;" connectable="0" vertex="1" parent="FvRMjD2MWKe5-9YGTqvw-30">
          <mxGeometry x="-1" relative="1" as="geometry">
            <mxPoint x="-37" y="-5" as="offset" />
          </mxGeometry>
        </mxCell>
        <mxCell id="FvRMjD2MWKe5-9YGTqvw-32" value="child" style="edgeLabel;resizable=0;html=1;align=right;verticalAlign=bottom;" connectable="0" vertex="1" parent="FvRMjD2MWKe5-9YGTqvw-30">
          <mxGeometry x="1" relative="1" as="geometry">
            <mxPoint x="40" y="-6" as="offset" />
          </mxGeometry>
        </mxCell>
        <mxCell id="FvRMjD2MWKe5-9YGTqvw-33" value="" style="endArrow=diamondThin;endFill=1;endSize=24;html=1;rounded=0;" edge="1" parent="WIyWlLk6GJQsqaUBKTNV-1">
          <mxGeometry width="160" relative="1" as="geometry">
            <mxPoint x="120" y="171" as="sourcePoint" />
            <mxPoint x="190" y="170.5" as="targetPoint" />
          </mxGeometry>
        </mxCell>
        <mxCell id="FvRMjD2MWKe5-9YGTqvw-42" value=" Trampa" style="swimlane;fontStyle=0;align=center;verticalAlign=top;childLayout=stackLayout;horizontal=1;startSize=26;horizontalStack=0;resizeParent=1;resizeLast=0;collapsible=1;marginBottom=0;rounded=0;shadow=0;strokeWidth=1;" vertex="1" parent="WIyWlLk6GJQsqaUBKTNV-1">
          <mxGeometry x="-40" y="278" width="160" height="130" as="geometry">
            <mxRectangle x="340" y="380" width="170" height="26" as="alternateBounds" />
          </mxGeometry>
        </mxCell>
        <mxCell id="FvRMjD2MWKe5-9YGTqvw-43" value="daño (int)" style="text;align=left;verticalAlign=top;spacingLeft=4;spacingRight=4;overflow=hidden;rotatable=0;points=[[0,0.5],[1,0.5]];portConstraint=eastwest;" vertex="1" parent="FvRMjD2MWKe5-9YGTqvw-42">
          <mxGeometry y="26" width="160" height="24" as="geometry" />
        </mxCell>
        <mxCell id="FvRMjD2MWKe5-9YGTqvw-44" value="" style="line;html=1;strokeWidth=1;align=left;verticalAlign=middle;spacingTop=-1;spacingLeft=3;spacingRight=3;rotatable=0;labelPosition=right;points=[];portConstraint=eastwest;" vertex="1" parent="FvRMjD2MWKe5-9YGTqvw-42">
          <mxGeometry y="50" width="160" height="8" as="geometry" />
        </mxCell>
        <mxCell id="FvRMjD2MWKe5-9YGTqvw-45" value="&lt;p style=&quot;margin-bottom:0cm;margin-bottom:.0001pt;line-height:&lt;br/&gt;normal&quot; class=&quot;MsoNormal&quot;&gt;activar()&lt;/p&gt;&lt;p style=&quot;margin-bottom:0cm;margin-bottom:.0001pt;line-height:&lt;br/&gt;normal&quot; class=&quot;MsoNormal&quot;&gt;aplicarDaño()&lt;/p&gt;" style="text;html=1;align=left;verticalAlign=middle;resizable=0;points=[];autosize=1;strokeColor=none;fillColor=none;rotation=0;" vertex="1" parent="FvRMjD2MWKe5-9YGTqvw-42">
          <mxGeometry y="58" width="160" height="70" as="geometry" />
        </mxCell>
        <mxCell id="FvRMjD2MWKe5-9YGTqvw-46" value="" style="endArrow=none;html=1;edgeStyle=orthogonalEdgeStyle;rounded=0;entryX=0;entryY=1.083;entryDx=0;entryDy=0;entryPerimeter=0;exitX=-0.019;exitY=0.55;exitDx=0;exitDy=0;exitPerimeter=0;" edge="1" parent="WIyWlLk6GJQsqaUBKTNV-1" source="FvRMjD2MWKe5-9YGTqvw-25" target="FvRMjD2MWKe5-9YGTqvw-43">
          <mxGeometry relative="1" as="geometry">
            <mxPoint x="-80" y="200" as="sourcePoint" />
            <mxPoint x="-340" y="300" as="targetPoint" />
            <Array as="points">
              <mxPoint x="-80" y="200" />
              <mxPoint x="-80" y="330" />
            </Array>
          </mxGeometry>
        </mxCell>
        <mxCell id="FvRMjD2MWKe5-9YGTqvw-47" value="parent" style="edgeLabel;resizable=0;html=1;align=left;verticalAlign=bottom;" connectable="0" vertex="1" parent="FvRMjD2MWKe5-9YGTqvw-46">
          <mxGeometry x="-1" relative="1" as="geometry">
            <mxPoint x="-37" y="-5" as="offset" />
          </mxGeometry>
        </mxCell>
        <mxCell id="FvRMjD2MWKe5-9YGTqvw-48" value="child" style="edgeLabel;resizable=0;html=1;align=right;verticalAlign=bottom;" connectable="0" vertex="1" parent="FvRMjD2MWKe5-9YGTqvw-46">
          <mxGeometry x="1" relative="1" as="geometry">
            <mxPoint x="-10" as="offset" />
          </mxGeometry>
        </mxCell>
        <mxCell id="FvRMjD2MWKe5-9YGTqvw-49" value=" Item" style="swimlane;fontStyle=0;align=center;verticalAlign=top;childLayout=stackLayout;horizontal=1;startSize=26;horizontalStack=0;resizeParent=1;resizeLast=0;collapsible=1;marginBottom=0;rounded=0;shadow=0;strokeWidth=1;" vertex="1" parent="WIyWlLk6GJQsqaUBKTNV-1">
          <mxGeometry x="-640" y="72" width="160" height="168" as="geometry">
            <mxRectangle x="340" y="380" width="170" height="26" as="alternateBounds" />
          </mxGeometry>
        </mxCell>
        <mxCell id="FvRMjD2MWKe5-9YGTqvw-50" value="tipo(String)&#xa;efecto(String)&#xa;" style="text;align=left;verticalAlign=top;spacingLeft=4;spacingRight=4;overflow=hidden;rotatable=0;points=[[0,0.5],[1,0.5]];portConstraint=eastwest;" vertex="1" parent="FvRMjD2MWKe5-9YGTqvw-49">
          <mxGeometry y="26" width="160" height="44" as="geometry" />
        </mxCell>
        <mxCell id="FvRMjD2MWKe5-9YGTqvw-51" value="" style="line;html=1;strokeWidth=1;align=left;verticalAlign=middle;spacingTop=-1;spacingLeft=3;spacingRight=3;rotatable=0;labelPosition=right;points=[];portConstraint=eastwest;" vertex="1" parent="FvRMjD2MWKe5-9YGTqvw-49">
          <mxGeometry y="70" width="160" height="8" as="geometry" />
        </mxCell>
        <mxCell id="FvRMjD2MWKe5-9YGTqvw-52" value="&lt;p style=&quot;margin-bottom:0cm;margin-bottom:.0001pt;line-height:&lt;br/&gt;normal&quot; class=&quot;MsoNormal&quot;&gt;obtenerTipo()&lt;/p&gt;&lt;p style=&quot;margin-bottom:0cm;margin-bottom:.0001pt;line-height:&lt;br/&gt;normal&quot; class=&quot;MsoNormal&quot;&gt;&lt;span style=&quot;background-color: initial;&quot;&gt;aplicarEfecto()&lt;/span&gt;&lt;/p&gt;&lt;p style=&quot;margin-bottom:0cm;margin-bottom:.0001pt;line-height:&lt;br/&gt;normal&quot; class=&quot;MsoNormal&quot;&gt;&lt;span style=&quot;background-color: initial;&quot;&gt;obtenerEfecto()&lt;/span&gt;&lt;/p&gt;" style="text;html=1;align=left;verticalAlign=middle;resizable=0;points=[];autosize=1;strokeColor=none;fillColor=none;rotation=0;" vertex="1" parent="FvRMjD2MWKe5-9YGTqvw-49">
          <mxGeometry y="78" width="160" height="90" as="geometry" />
        </mxCell>
        <mxCell id="FvRMjD2MWKe5-9YGTqvw-56" value="" style="endArrow=none;html=1;edgeStyle=orthogonalEdgeStyle;rounded=0;entryX=1.025;entryY=1;entryDx=0;entryDy=0;entryPerimeter=0;exitX=0;exitY=0.318;exitDx=0;exitDy=0;exitPerimeter=0;" edge="1" parent="WIyWlLk6GJQsqaUBKTNV-1">
          <mxGeometry relative="1" as="geometry">
            <mxPoint x="-320" y="150.00199999999995" as="sourcePoint" />
            <mxPoint x="-476" y="152.01" as="targetPoint" />
            <Array as="points">
              <mxPoint x="-476" y="150.01" />
            </Array>
          </mxGeometry>
        </mxCell>
        <mxCell id="FvRMjD2MWKe5-9YGTqvw-57" value="parent" style="edgeLabel;resizable=0;html=1;align=left;verticalAlign=bottom;" connectable="0" vertex="1" parent="FvRMjD2MWKe5-9YGTqvw-56">
          <mxGeometry x="-1" relative="1" as="geometry">
            <mxPoint x="-40" as="offset" />
          </mxGeometry>
        </mxCell>
        <mxCell id="FvRMjD2MWKe5-9YGTqvw-58" value="child" style="edgeLabel;resizable=0;html=1;align=right;verticalAlign=bottom;" connectable="0" vertex="1" parent="FvRMjD2MWKe5-9YGTqvw-56">
          <mxGeometry x="1" relative="1" as="geometry">
            <mxPoint x="26" y="-2" as="offset" />
          </mxGeometry>
        </mxCell>
        <mxCell id="FvRMjD2MWKe5-9YGTqvw-59" value=" Explosión" style="swimlane;fontStyle=0;align=center;verticalAlign=top;childLayout=stackLayout;horizontal=1;startSize=26;horizontalStack=0;resizeParent=1;resizeLast=0;collapsible=1;marginBottom=0;rounded=0;shadow=0;strokeWidth=1;" vertex="1" parent="WIyWlLk6GJQsqaUBKTNV-1">
          <mxGeometry x="-640" y="262" width="160" height="168" as="geometry">
            <mxRectangle x="340" y="380" width="170" height="26" as="alternateBounds" />
          </mxGeometry>
        </mxCell>
        <mxCell id="FvRMjD2MWKe5-9YGTqvw-60" value="radio (int)&#xa;daño (int)" style="text;align=left;verticalAlign=top;spacingLeft=4;spacingRight=4;overflow=hidden;rotatable=0;points=[[0,0.5],[1,0.5]];portConstraint=eastwest;" vertex="1" parent="FvRMjD2MWKe5-9YGTqvw-59">
          <mxGeometry y="26" width="160" height="44" as="geometry" />
        </mxCell>
        <mxCell id="FvRMjD2MWKe5-9YGTqvw-61" value="" style="line;html=1;strokeWidth=1;align=left;verticalAlign=middle;spacingTop=-1;spacingLeft=3;spacingRight=3;rotatable=0;labelPosition=right;points=[];portConstraint=eastwest;" vertex="1" parent="FvRMjD2MWKe5-9YGTqvw-59">
          <mxGeometry y="70" width="160" height="8" as="geometry" />
        </mxCell>
        <mxCell id="FvRMjD2MWKe5-9YGTqvw-62" value="&lt;p style=&quot;margin-bottom:0cm;margin-bottom:.0001pt;line-height:&lt;br/&gt;normal&quot; class=&quot;MsoNormal&quot;&gt;expandirse()&lt;/p&gt;&lt;p style=&quot;margin-bottom:0cm;margin-bottom:.0001pt;line-height:&lt;br/&gt;normal&quot; class=&quot;MsoNormal&quot;&gt;&lt;span lang=&quot;ES-CO&quot;&gt;aplicarDaño()&lt;/span&gt;&lt;/p&gt;&lt;p style=&quot;margin-bottom:0cm;margin-bottom:.0001pt;line-height:&lt;br/&gt;normal&quot; class=&quot;MsoNormal&quot;&gt;&lt;span style=&quot;background-color: initial;&quot;&gt;obtenerRadio()&lt;/span&gt;&lt;/p&gt;" style="text;html=1;align=left;verticalAlign=middle;resizable=0;points=[];autosize=1;strokeColor=none;fillColor=none;rotation=0;" vertex="1" parent="FvRMjD2MWKe5-9YGTqvw-59">
          <mxGeometry y="78" width="160" height="90" as="geometry" />
        </mxCell>
        <mxCell id="FvRMjD2MWKe5-9YGTqvw-64" value="" style="endArrow=none;html=1;edgeStyle=orthogonalEdgeStyle;rounded=0;exitX=-0.012;exitY=1;exitDx=0;exitDy=0;exitPerimeter=0;entryX=1.019;entryY=0.256;entryDx=0;entryDy=0;entryPerimeter=0;" edge="1" parent="WIyWlLk6GJQsqaUBKTNV-1" target="FvRMjD2MWKe5-9YGTqvw-62">
          <mxGeometry relative="1" as="geometry">
            <mxPoint x="-320" y="198" as="sourcePoint" />
            <mxPoint x="-460" y="370" as="targetPoint" />
            <Array as="points">
              <mxPoint x="-320" y="170" />
              <mxPoint x="-460" y="170" />
              <mxPoint x="-460" y="363" />
            </Array>
          </mxGeometry>
        </mxCell>
        <mxCell id="FvRMjD2MWKe5-9YGTqvw-65" value="parent" style="edgeLabel;resizable=0;html=1;align=left;verticalAlign=bottom;" connectable="0" vertex="1" parent="FvRMjD2MWKe5-9YGTqvw-64">
          <mxGeometry x="-1" relative="1" as="geometry">
            <mxPoint x="-40" y="-28" as="offset" />
          </mxGeometry>
        </mxCell>
        <mxCell id="FvRMjD2MWKe5-9YGTqvw-66" value="child" style="edgeLabel;resizable=0;html=1;align=right;verticalAlign=bottom;" connectable="0" vertex="1" parent="FvRMjD2MWKe5-9YGTqvw-64">
          <mxGeometry x="1" relative="1" as="geometry">
            <mxPoint x="26" y="-2" as="offset" />
          </mxGeometry>
        </mxCell>
        <mxCell id="FvRMjD2MWKe5-9YGTqvw-67" value="Proyectil" style="swimlane;fontStyle=0;align=center;verticalAlign=top;childLayout=stackLayout;horizontal=1;startSize=26;horizontalStack=0;resizeParent=1;resizeLast=0;collapsible=1;marginBottom=0;rounded=0;shadow=0;strokeWidth=1;" vertex="1" parent="WIyWlLk6GJQsqaUBKTNV-1">
          <mxGeometry x="-640" y="448" width="160" height="182" as="geometry">
            <mxRectangle x="340" y="380" width="170" height="26" as="alternateBounds" />
          </mxGeometry>
        </mxCell>
        <mxCell id="FvRMjD2MWKe5-9YGTqvw-68" value="velocidad(int)&#xa;dirección(String)&#xa;daño (int)" style="text;align=left;verticalAlign=top;spacingLeft=4;spacingRight=4;overflow=hidden;rotatable=0;points=[[0,0.5],[1,0.5]];portConstraint=eastwest;" vertex="1" parent="FvRMjD2MWKe5-9YGTqvw-67">
          <mxGeometry y="26" width="160" height="54" as="geometry" />
        </mxCell>
        <mxCell id="FvRMjD2MWKe5-9YGTqvw-69" value="" style="line;html=1;strokeWidth=1;align=left;verticalAlign=middle;spacingTop=-1;spacingLeft=3;spacingRight=3;rotatable=0;labelPosition=right;points=[];portConstraint=eastwest;" vertex="1" parent="FvRMjD2MWKe5-9YGTqvw-67">
          <mxGeometry y="80" width="160" height="8" as="geometry" />
        </mxCell>
        <mxCell id="FvRMjD2MWKe5-9YGTqvw-70" value="&lt;p style=&quot;margin-bottom:0cm;margin-bottom:.0001pt;line-height:&lt;br/&gt;normal&quot; class=&quot;MsoNormal&quot;&gt;moverse()&lt;/p&gt;&lt;p style=&quot;margin-bottom:0cm;margin-bottom:.0001pt;line-height:&lt;br/&gt;normal&quot; class=&quot;MsoNormal&quot;&gt;&lt;span lang=&quot;ES-CO&quot;&gt;impactar()&lt;/span&gt;&lt;/p&gt;&lt;p style=&quot;margin-bottom:0cm;margin-bottom:.0001pt;line-height:&lt;br/&gt;normal&quot; class=&quot;MsoNormal&quot;&gt;&lt;span lang=&quot;ES-CO&quot;&gt;obtenerDaño()&lt;/span&gt;&lt;/p&gt;" style="text;html=1;align=left;verticalAlign=middle;resizable=0;points=[];autosize=1;strokeColor=none;fillColor=none;rotation=0;" vertex="1" parent="FvRMjD2MWKe5-9YGTqvw-67">
          <mxGeometry y="88" width="160" height="90" as="geometry" />
        </mxCell>
        <mxCell id="FvRMjD2MWKe5-9YGTqvw-71" value="" style="endArrow=none;html=1;edgeStyle=orthogonalEdgeStyle;rounded=0;exitX=-0.012;exitY=1;exitDx=0;exitDy=0;exitPerimeter=0;entryX=1.019;entryY=0;entryDx=0;entryDy=0;entryPerimeter=0;" edge="1" parent="WIyWlLk6GJQsqaUBKTNV-1" target="FvRMjD2MWKe5-9YGTqvw-70">
          <mxGeometry relative="1" as="geometry">
            <mxPoint x="-320" y="220" as="sourcePoint" />
            <mxPoint x="-460" y="530" as="targetPoint" />
            <Array as="points">
              <mxPoint x="-320" y="190" />
              <mxPoint x="-450" y="190" />
              <mxPoint x="-450" y="536" />
            </Array>
          </mxGeometry>
        </mxCell>
        <mxCell id="FvRMjD2MWKe5-9YGTqvw-72" value="parent" style="edgeLabel;resizable=0;html=1;align=left;verticalAlign=bottom;" connectable="0" vertex="1" parent="FvRMjD2MWKe5-9YGTqvw-71">
          <mxGeometry x="-1" relative="1" as="geometry">
            <mxPoint x="-40" y="-30" as="offset" />
          </mxGeometry>
        </mxCell>
        <mxCell id="FvRMjD2MWKe5-9YGTqvw-73" value="child" style="edgeLabel;resizable=0;html=1;align=right;verticalAlign=bottom;" connectable="0" vertex="1" parent="FvRMjD2MWKe5-9YGTqvw-71">
          <mxGeometry x="1" relative="1" as="geometry">
            <mxPoint x="26" y="-2" as="offset" />
          </mxGeometry>
        </mxCell>
        <mxCell id="FvRMjD2MWKe5-9YGTqvw-74" value="Puerta" style="swimlane;fontStyle=0;align=center;verticalAlign=top;childLayout=stackLayout;horizontal=1;startSize=26;horizontalStack=0;resizeParent=1;resizeLast=0;collapsible=1;marginBottom=0;rounded=0;shadow=0;strokeWidth=1;" vertex="1" parent="WIyWlLk6GJQsqaUBKTNV-1">
          <mxGeometry x="-640" y="660" width="160" height="180" as="geometry">
            <mxRectangle x="340" y="380" width="170" height="26" as="alternateBounds" />
          </mxGeometry>
        </mxCell>
        <mxCell id="FvRMjD2MWKe5-9YGTqvw-75" value="destino (String)&#xa;posición (int[])" style="text;align=left;verticalAlign=top;spacingLeft=4;spacingRight=4;overflow=hidden;rotatable=0;points=[[0,0.5],[1,0.5]];portConstraint=eastwest;" vertex="1" parent="FvRMjD2MWKe5-9YGTqvw-74">
          <mxGeometry y="26" width="160" height="54" as="geometry" />
        </mxCell>
        <mxCell id="FvRMjD2MWKe5-9YGTqvw-76" value="" style="line;html=1;strokeWidth=1;align=left;verticalAlign=middle;spacingTop=-1;spacingLeft=3;spacingRight=3;rotatable=0;labelPosition=right;points=[];portConstraint=eastwest;" vertex="1" parent="FvRMjD2MWKe5-9YGTqvw-74">
          <mxGeometry y="80" width="160" height="8" as="geometry" />
        </mxCell>
        <mxCell id="FvRMjD2MWKe5-9YGTqvw-77" value="&lt;p style=&quot;margin-bottom:0cm;margin-bottom:.0001pt;line-height:&lt;br/&gt;normal&quot; class=&quot;MsoNormal&quot;&gt;abrir()&lt;/p&gt;&lt;p style=&quot;margin-bottom:0cm;margin-bottom:.0001pt;line-height:&lt;br/&gt;normal&quot; class=&quot;MsoNormal&quot;&gt;&lt;span lang=&quot;ES-CO&quot;&gt;cerrar()&lt;/span&gt;&lt;/p&gt;&lt;p style=&quot;margin-bottom:0cm;margin-bottom:.0001pt;line-height:&lt;br/&gt;normal&quot; class=&quot;MsoNormal&quot;&gt;&lt;span lang=&quot;ES-CO&quot;&gt;obtenerDestino()&lt;/span&gt;&lt;/p&gt;" style="text;html=1;align=left;verticalAlign=middle;resizable=0;points=[];autosize=1;strokeColor=none;fillColor=none;rotation=0;" vertex="1" parent="FvRMjD2MWKe5-9YGTqvw-74">
          <mxGeometry y="88" width="160" height="90" as="geometry" />
        </mxCell>
        <mxCell id="FvRMjD2MWKe5-9YGTqvw-78" value="" style="endArrow=none;html=1;edgeStyle=orthogonalEdgeStyle;rounded=0;entryX=1.013;entryY=1.037;entryDx=0;entryDy=0;entryPerimeter=0;" edge="1" parent="WIyWlLk6GJQsqaUBKTNV-1">
          <mxGeometry relative="1" as="geometry">
            <mxPoint x="-320" y="230" as="sourcePoint" />
            <mxPoint x="-477.9200000000001" y="751.998" as="targetPoint" />
            <Array as="points">
              <mxPoint x="-320" y="210" />
              <mxPoint x="-440" y="210" />
              <mxPoint x="-440" y="752" />
            </Array>
          </mxGeometry>
        </mxCell>
        <mxCell id="FvRMjD2MWKe5-9YGTqvw-79" value="parent" style="edgeLabel;resizable=0;html=1;align=left;verticalAlign=bottom;" connectable="0" vertex="1" parent="FvRMjD2MWKe5-9YGTqvw-78">
          <mxGeometry x="-1" relative="1" as="geometry">
            <mxPoint x="-38" y="-18" as="offset" />
          </mxGeometry>
        </mxCell>
        <mxCell id="FvRMjD2MWKe5-9YGTqvw-80" value="child" style="edgeLabel;resizable=0;html=1;align=right;verticalAlign=bottom;" connectable="0" vertex="1" parent="FvRMjD2MWKe5-9YGTqvw-78">
          <mxGeometry x="1" relative="1" as="geometry">
            <mxPoint x="26" y="-2" as="offset" />
          </mxGeometry>
        </mxCell>
        <mxCell id="FvRMjD2MWKe5-9YGTqvw-81" value="Tile" style="swimlane;fontStyle=0;align=center;verticalAlign=top;childLayout=stackLayout;horizontal=1;startSize=26;horizontalStack=0;resizeParent=1;resizeLast=0;collapsible=1;marginBottom=0;rounded=0;shadow=0;strokeWidth=1;" vertex="1" parent="WIyWlLk6GJQsqaUBKTNV-1">
          <mxGeometry x="-640" y="870" width="160" height="180" as="geometry">
            <mxRectangle x="340" y="380" width="170" height="26" as="alternateBounds" />
          </mxGeometry>
        </mxCell>
        <mxCell id="FvRMjD2MWKe5-9YGTqvw-82" value="tipo (String)&#xa;posición(int[])" style="text;align=left;verticalAlign=top;spacingLeft=4;spacingRight=4;overflow=hidden;rotatable=0;points=[[0,0.5],[1,0.5]];portConstraint=eastwest;" vertex="1" parent="FvRMjD2MWKe5-9YGTqvw-81">
          <mxGeometry y="26" width="160" height="44" as="geometry" />
        </mxCell>
        <mxCell id="FvRMjD2MWKe5-9YGTqvw-83" value="" style="line;html=1;strokeWidth=1;align=left;verticalAlign=middle;spacingTop=-1;spacingLeft=3;spacingRight=3;rotatable=0;labelPosition=right;points=[];portConstraint=eastwest;" vertex="1" parent="FvRMjD2MWKe5-9YGTqvw-81">
          <mxGeometry y="70" width="160" height="8" as="geometry" />
        </mxCell>
        <mxCell id="FvRMjD2MWKe5-9YGTqvw-84" value="&lt;p style=&quot;margin-bottom:0cm;margin-bottom:.0001pt;line-height:&lt;br/&gt;normal&quot; class=&quot;MsoNormal&quot;&gt;obtenerTipo()&lt;/p&gt;&lt;p style=&quot;margin-bottom:0cm;margin-bottom:.0001pt;line-height:&lt;br/&gt;normal&quot; class=&quot;MsoNormal&quot;&gt;&lt;span lang=&quot;ES-CO&quot;&gt;actualizar()&lt;/span&gt;&lt;/p&gt;&lt;p style=&quot;margin-bottom:0cm;margin-bottom:.0001pt;line-height:&lt;br/&gt;normal&quot; class=&quot;MsoNormal&quot;&gt;&lt;span lang=&quot;ES-CO&quot;&gt;dibujar()&lt;/span&gt;&lt;/p&gt;" style="text;html=1;align=left;verticalAlign=middle;resizable=0;points=[];autosize=1;strokeColor=none;fillColor=none;rotation=0;" vertex="1" parent="FvRMjD2MWKe5-9YGTqvw-81">
          <mxGeometry y="78" width="160" height="90" as="geometry" />
        </mxCell>
        <mxCell id="FvRMjD2MWKe5-9YGTqvw-85" value="" style="endArrow=none;html=1;edgeStyle=orthogonalEdgeStyle;rounded=0;entryX=1.019;entryY=0.078;entryDx=0;entryDy=0;entryPerimeter=0;" edge="1" parent="WIyWlLk6GJQsqaUBKTNV-1" target="FvRMjD2MWKe5-9YGTqvw-84">
          <mxGeometry relative="1" as="geometry">
            <mxPoint x="-320" y="237" as="sourcePoint" />
            <mxPoint x="-430" y="960" as="targetPoint" />
            <Array as="points">
              <mxPoint x="-320" y="228" />
              <mxPoint x="-430" y="228" />
              <mxPoint x="-430" y="955" />
            </Array>
          </mxGeometry>
        </mxCell>
        <mxCell id="FvRMjD2MWKe5-9YGTqvw-86" value="parent" style="edgeLabel;resizable=0;html=1;align=left;verticalAlign=bottom;" connectable="0" vertex="1" parent="FvRMjD2MWKe5-9YGTqvw-85">
          <mxGeometry x="-1" relative="1" as="geometry">
            <mxPoint x="-40" y="-9" as="offset" />
          </mxGeometry>
        </mxCell>
        <mxCell id="FvRMjD2MWKe5-9YGTqvw-87" value="child" style="edgeLabel;resizable=0;html=1;align=right;verticalAlign=bottom;" connectable="0" vertex="1" parent="FvRMjD2MWKe5-9YGTqvw-85">
          <mxGeometry x="1" relative="1" as="geometry">
            <mxPoint x="26" y="-2" as="offset" />
          </mxGeometry>
        </mxCell>
      </root>
    </mxGraphModel>
  </diagram>
</mxfile>
